<?xml version="1.0" encoding="utf-8"?>
<!-- Generator: Adobe Illustrator 18.0.0, SVG Export Plug-In . SVG Version: 6.00 Build 0)  -->
<!DOCTYPE svg PUBLIC "-//W3C//DTD SVG 1.1//EN" "http://www.w3.org/Graphics/SVG/1.1/DTD/svg11.dtd">
<svg version="1.1" id="Layer_1" xmlns="http://www.w3.org/2000/svg" xmlns:xlink="http://www.w3.org/1999/xlink" x="0px" y="0px"
	 viewBox="0 0 275.5 275.6" enable-background="new 0 0 275.5 275.6" xml:space="preserve">
<path class="icon" opacity="0.5" fill="#808285" d="M275.5,0c-0.1,11,0.1,240.2,0.1,240.2c0,10.2-0.1,35.4-0.1,35.4s-25.4,0-35.3,0H35.4
	c-9.9,0-35.4,0.1-35.4,0.1s0-25.2,0-35.4L0,0C0,0,266.5,0.1,275.5,0z M200.7,30.6c-3.6,0-12.4,0-12.4,0s0,9.1,0,12.4v29.7
	c0,3.5,0,12.4,0,12.4s9.1,0,12.4,0h31.1c3.8,0,12.4,0,12.4,0s0-9.4,0-12.4V43c0-3.7,0-12.4,0-12.4s-9.3,0-12.4,0L200.7,30.6
	L200.7,30.6z M244.4,116.5h-24.3c2.3,7.5,3.5,15.4,3.5,23.6c0,45.8-38.4,83-85.7,83c-47.3,0-85.6-37.2-85.6-83
	c0-8.2,1.2-16.1,3.5-23.6H30.6v127.4h213.8L244.4,116.5L244.4,116.5z M138.1,83.6c-30.6,0-55.3,24-55.3,53.6s24.8,53.6,55.3,53.6
	c30.6,0,55.3-24,55.3-53.6S168.6,83.6,138.1,83.6z"/>
</svg>
