
<!-- Generator: Adobe Illustrator 18.0.0, SVG Export Plug-In . SVG Version: 6.00 Build 0)  -->
<!DOCTYPE svg PUBLIC "-//W3C//DTD SVG 1.1//EN" "http://www.w3.org/Graphics/SVG/1.1/DTD/svg11.dtd">
<svg version="1.1" class="menu_svg" id="Layer_1" xmlns="http://www.w3.org/2000/svg" xmlns:xlink="http://www.w3.org/1999/xlink" x="0px" y="0px"
	 viewBox="0 0 13824 10368" enable-background="new 0 0 13824 10368" xml:space="preserve">
<path fill="#737373" d="M11034.9,5495H2789.1c-145.8,0-270.7-124.4-270.7-269.6v-82.9c0-145.2,124.9-269.6,270.7-269.6h8245.9
	c145.8,0,270.7,124.4,270.7,269.6v82.9C11305.6,5370.6,11180.7,5495,11034.9,5495z"/>
<path fill="#737373" d="M11078,9227.5H2808.2c-146.2,0-271.5-124.4-271.5-269.6V8875c0-145.2,125.3-269.6,271.5-269.6H11078
	c146.2,0,271.5,124.4,271.5,269.6v82.9C11349.5,9103.1,11224.2,9227.5,11078,9227.5z"/>
<path fill="#737373" d="M11053.3,2011.4H2807.4c-145.8,0-270.7-124.4-270.7-269.6v-82.9c0-145.2,124.9-269.6,270.7-269.6h8245.9
	c145.8,0,270.7,124.4,270.7,269.6v82.9C11324,1887,11199,2011.4,11053.3,2011.4z"/>
</svg>
