<?xml version="1.0" encoding="utf-8"?>
<!-- Generator: Adobe Illustrator 18.0.0, SVG Export Plug-In . SVG Version: 6.00 Build 0)  -->
<!DOCTYPE svg PUBLIC "-//W3C//DTD SVG 1.1//EN" "http://www.w3.org/Graphics/SVG/1.1/DTD/svg11.dtd">
<svg version="1.1" id="Layer_1" xmlns="http://www.w3.org/2000/svg" xmlns:xlink="http://www.w3.org/1999/xlink" x="0px" y="0px"
	 viewBox="0 0 50 50" enable-background="new 0 0 50 50" xml:space="preserve" class="menu_svg">
<path fill="#ABABAB" d="M44.8,26.1H5.2c-0.7,0-1.3-0.6-1.3-1.3v-0.4c0-0.7,0.6-1.3,1.3-1.3h39.6c0.7,0,1.3,0.6,1.3,1.3v0.4
	C46.1,25.5,45.5,26.1,44.8,26.1z"/>
<path fill="#ABABAB" d="M45.1,44.5H5.5c-0.7,0-1.3-0.6-1.3-1.3v-0.4c0-0.7,0.6-1.3,1.3-1.3h39.6c0.7,0,1.3,0.6,1.3,1.3v0.4
	C46.4,43.9,45.8,44.5,45.1,44.5z"/>
<path fill="#ABABAB" d="M45.1,8.2H5.5c-0.7,0-1.3-0.6-1.3-1.3V6.5c0-0.7,0.6-1.3,1.3-1.3h39.6c0.7,0,1.3,0.6,1.3,1.3v0.4
	C46.4,7.6,45.8,8.2,45.1,8.2z"/>
</svg>
