
<!-- Generator: Adobe Illustrator 18.0.0, SVG Export Plug-In . SVG Version: 6.00 Build 0)  -->
<!DOCTYPE svg PUBLIC "-//W3C//DTD SVG 1.1//EN" "http://www.w3.org/Graphics/SVG/1.1/DTD/svg11.dtd">
<svg version="1.1" class="search_svg" id="Capa_1" xmlns="http://www.w3.org/2000/svg" xmlns:xlink="http://www.w3.org/1999/xlink" x="0px" y="0px"
	 viewBox="0 0 64 64" enable-background="new 0 0 64 64" xml:space="preserve">
<path fill="#737373" d="M2.1,63.1c0.3,0.3,0.6,0.4,1,0.4c0.4,0,0.7-0.1,1-0.4l20.8-20.8c4.1,3.6,9.4,5.8,15.3,5.8
	c12.7,0,23.1-10.4,23.1-23.1C63.2,12.3,52.8,2,40.1,2C27.4,2,17,12.3,17,25.1c0,5.9,2.2,11.2,5.8,15.3L2.1,61.1
	C1.6,61.7,1.6,62.5,2.1,63.1z M26.8,40.4c-0.7-0.6-1.3-1.3-1.9-1.9c-3.1-3.6-5-8.2-5-13.4c0-11.2,9.1-20.3,20.3-20.3
	c11.2,0,20.3,9.1,20.3,20.3s-9.1,20.3-20.3,20.3C35,45.4,30.3,43.5,26.8,40.4z"/>
</svg>
