<?xml version="1.0" encoding="utf-8"?>
<!-- Generator: Adobe Illustrator 18.0.0, SVG Export Plug-In . SVG Version: 6.00 Build 0)  -->
<!DOCTYPE svg PUBLIC "-//W3C//DTD SVG 1.1//EN" "http://www.w3.org/Graphics/SVG/1.1/DTD/svg11.dtd">
<svg class="svg" version="1.1" id="Layer_1" xmlns="http://www.w3.org/2000/svg" xmlns:xlink="http://www.w3.org/1999/xlink" x="0px" y="0px"
	 viewBox="0 0 275.5 224.4" enable-background="new 0 0 275.5 224.4" xml:space="preserve">
<path class="icon" opacity="0.5" fill="#808285" d="M247.9,55.8l0.3,7.5c0,74.8-57.2,161.1-161.4,161.1c-31.9,0-61.8-9.2-86.9-25.3
	c4.6,0.6,8.9,0.9,13.5,0.9c26.8,0,50.9-9.2,70.5-24.5c-24.7-0.3-45.7-16.7-52.9-39.4c3.5,0.9,6.9,1.2,10.6,1.2c5.2,0,10.1-0.6,15-2
	C30.8,130,11.2,107,11.2,79.7v-0.6c7.5,4,16.4,6.6,25.6,6.9c-15.2-10.1-25-27.3-25-47.2c0-10.4,2.6-20.1,7.5-28.5
	c27.9,34.5,69.6,57,116.8,59.3c-0.9-4-1.4-8.3-1.4-12.9c0-31.4,25.3-56.7,56.7-56.7c16.4,0,31.1,6.9,41.4,18.1
	c12.9-2.6,25-7.5,36-13.8c-4.3,13.2-13.2,24.2-25,31.4c11.5-1.4,22.4-4.6,32.5-8.9C268.7,38,258.9,48,247.9,55.8z"/>
</svg>
